<svg width="77" height="77" viewBox="0 0 77 77" fill="none" xmlns="http://www.w3.org/2000/svg">
<path d="M67.375 38.5001H70.5833M59.3542 17.6459L62.5625 14.4376M38.5 9.62508V6.41675M17.6458 17.6459L14.4375 14.4376M9.62499 38.5001H6.41666M32.0833 70.5834H44.9167M54.5417 38.5001C54.5408 35.6081 53.7582 32.7702 52.2767 30.2865C50.7952 27.8029 48.6698 25.766 46.1254 24.3913C43.5811 23.0166 40.7125 22.3552 37.8231 22.4773C34.9337 22.5993 32.1311 23.5001 29.7117 25.0845C27.2923 26.6688 25.3463 28.8777 24.0794 31.4774C22.8126 34.0771 22.272 36.971 22.5151 39.8527C22.7581 42.7344 23.7756 45.4969 25.4599 47.8477C27.1443 50.1985 29.4328 52.0503 32.0833 53.2071V60.9584H44.9167V53.2071C47.7779 51.9579 50.2125 49.9011 51.9221 47.2888C53.6318 44.6765 54.5421 41.6221 54.5417 38.5001Z" stroke="#E64223" stroke-width="4" stroke-linecap="round" stroke-linejoin="round"/>
</svg>
