<svg width="418" height="203" viewBox="0 0 418 203" fill="none" xmlns="http://www.w3.org/2000/svg">
<g clip-path="url(#clip0_1495_10)">
<path d="M162.361 104.2C155.198 104.2 148.759 102.47 143.02 99.0335C137.304 95.5967 132.731 91.0145 129.348 85.2632C125.965 79.5354 124.261 73.1763 124.261 66.1859C124.261 59.1956 125.965 52.8599 129.348 47.1788C132.731 41.4977 137.304 36.9622 143.09 33.5722C148.852 30.1823 155.292 28.4756 162.361 28.4756C169.43 28.4756 176.103 30.1823 181.773 33.5722C187.442 36.9622 191.945 41.5211 195.281 47.2723C198.618 53.0002 200.274 59.3125 200.274 66.2093C200.274 73.1061 198.618 79.5587 195.281 85.2866C191.945 91.0145 187.419 95.6201 181.703 99.0568C175.986 102.494 169.524 104.224 162.361 104.224V104.2ZM162.361 95.363C167.727 95.363 172.58 94.0537 176.92 91.3885C181.259 88.7467 184.689 85.2398 187.232 80.8446C189.775 76.4493 191.035 71.6099 191.035 66.3262C191.035 61.0426 189.775 56.2031 187.232 51.8078C184.689 47.4126 181.259 43.9057 176.92 41.2639C172.58 38.6221 167.727 37.2895 162.361 37.2895C156.995 37.2895 152.142 38.6221 147.803 41.2639C143.463 43.9057 140.01 47.4126 137.42 51.8078C134.83 56.2031 133.547 61.0426 133.547 66.3262C133.547 71.6099 134.83 76.4493 137.42 80.8446C140.01 85.2398 143.463 88.7467 147.803 91.3885C152.142 94.0303 156.995 95.363 162.361 95.363Z" fill="#E64223"/>
<path d="M88.7048 29.1537C95.5642 29.1537 101.397 30.7435 106.18 33.9464C110.963 37.1493 114.626 41.451 117.145 46.8984C119.689 52.3457 98.8305 58.4008 98.8305 65.1807V103.546H89.5914V67.1913C89.5914 62.0947 110.846 56.7877 109.096 52.4626C107.346 48.1141 104.733 44.6306 101.257 41.9888C97.7806 39.3469 93.4411 38.0143 88.2616 38.0143C83.0821 38.0143 79.0691 39.2768 75.6394 41.8251C72.2098 44.3734 69.5967 47.7634 67.8002 51.995C66.0037 56.2266 65.1171 60.9024 65.1171 65.9756V103.522H55.8547V66.1159C55.8547 60.9258 54.9681 56.2266 53.1716 51.9716C51.3751 47.74 48.7153 44.35 45.1923 41.8017C41.646 39.2534 37.3531 37.991 32.2669 37.991C27.1807 37.991 22.8178 39.3236 19.4348 41.9654C16.0518 44.6072 13.5087 48.0673 11.8289 52.369C10.1257 56.6474 9.28578 61.3466 9.28578 66.4432V103.546H0V65.3912C0 58.6112 1.23655 52.4626 3.73298 46.9919C6.2294 41.4978 9.82239 37.1727 14.5586 33.9698C19.2948 30.7668 24.9876 29.1771 31.6603 29.1771C37.6331 29.1771 42.8359 30.4162 47.2688 32.9177C51.7017 35.4193 55.1781 38.7858 57.7211 43.0174C60.2642 47.249 61.6174 52.1119 61.8274 57.6059H59.7276C60.0309 52.1119 61.3841 47.249 63.8339 43.0174C66.2603 38.7858 69.5967 35.4193 73.8429 32.9177C78.0659 30.4162 83.0354 29.1771 88.7048 29.1771V29.1537Z" fill="#E64223"/>
<path d="M212.756 102.096C215.308 102.096 217.376 100.024 217.376 97.4671C217.376 94.9105 215.308 92.838 212.756 92.838C210.205 92.838 208.137 94.9105 208.137 97.4671C208.137 100.024 210.205 102.096 212.756 102.096Z" fill="#E64223"/>
<path d="M263.175 104.2C258.205 104.2 253.469 103.218 248.989 101.278C244.51 99.3374 240.567 96.6489 237.184 93.1888C233.801 89.752 231.141 85.7075 229.205 81.0784C227.268 76.4494 226.288 71.5398 226.288 66.3496C226.288 61.1595 227.268 56.1564 229.205 51.6209C231.141 47.0853 233.801 43.0642 237.184 39.5807C240.567 36.0972 244.51 33.3619 248.989 31.4214C253.469 29.4809 258.205 28.499 263.175 28.499C269.638 28.499 275.61 29.9485 281.093 32.8475C286.576 35.7465 291.009 40.2821 294.392 46.4541L286.623 50.9429C284.033 46.2671 280.696 42.807 276.614 40.6094C272.531 38.4117 268.051 37.3129 263.175 37.3129C258.299 37.3129 253.609 38.6455 249.433 41.2873C245.257 43.9292 241.897 47.436 239.354 51.8313C236.811 56.2265 235.551 61.066 235.551 66.3496C235.551 71.6333 236.811 76.4728 239.354 80.868C241.897 85.2633 245.257 88.7701 249.433 91.412C253.609 94.0538 258.182 95.3864 263.175 95.3864C268.168 95.3864 272.531 94.2876 276.614 92.0899C280.696 89.8923 284.033 86.5024 286.623 81.9201L294.392 86.2686C291.009 92.3471 286.576 96.8593 281.093 99.805C275.61 102.751 269.638 104.224 263.175 104.224V104.2Z" fill="#E64223"/>
<path d="M385.266 65.4612V104.107H376.004V66.2094C376.004 60.2477 375.094 55.5953 373.251 51.3637C371.408 47.1087 368.631 43.6954 364.968 41.1003C361.282 38.5052 356.686 37.2194 351.226 37.2194C349.5 37.2194 347.82 37.3597 346.21 37.6636V46.8516C346.21 49.7505 339.351 52.6963 333.751 55.5252C333.728 55.5252 333.705 55.5485 333.681 55.5485C329.692 58.2371 325.212 60.9725 325.212 63.8949L325.096 91.2717L325.049 104.107H315.833V0H325.072V58.8216C325.352 58.6813 325.609 58.5411 325.889 58.4008C326.729 58.0033 327.545 57.5825 328.339 57.1851C332.328 54.5199 336.994 51.4572 336.994 48.5348V32.0059C337.204 31.889 337.414 31.7721 337.624 31.6786C340.307 30.346 343.177 29.4342 346.21 28.9198C348.217 28.5458 350.27 28.3821 352.416 28.3821C359.276 28.3821 365.178 29.9018 370.101 32.941C375.047 36.0037 378.804 40.2119 381.393 45.5891C383.983 50.9896 385.266 57.3253 385.266 65.4612Z" fill="#E64223"/>
<path d="M418 28.5925H408.738V104.107H418V28.5925Z" fill="#E64223"/>
<path d="M55.1314 159.515C55.1314 146.68 65.1871 136.253 78.0892 136.253C86.8384 136.253 94.3043 141.326 97.8973 148.527L97.9906 116.755H101.21V159.515C101.21 172.35 90.9913 182.59 78.1825 182.59C65.3737 182.59 55.1547 172.163 55.1547 159.515H55.1314ZM97.9906 159.515C97.9906 148.527 89.1481 139.386 78.1825 139.386C67.2169 139.386 58.4677 148.527 58.4677 159.515C58.4677 170.503 67.2169 179.457 78.1825 179.457C89.1481 179.457 97.9906 170.41 97.9906 159.515Z" fill="#E64223"/>
<path d="M120.482 159.421C120.482 146.586 129.231 136.253 141.946 136.253C154.662 136.253 162.968 145.207 162.968 157.949V160.357H123.795C124.168 170.971 132.077 179.387 142.973 179.387C149.436 179.387 155.408 176.792 159.001 170.526L161.591 172.093C157.438 179.2 150.626 182.52 142.973 182.52C130.164 182.52 120.482 172.373 120.482 159.445V159.421ZM159.748 157.574C159.748 146.68 152.282 139.386 141.97 139.386C131.657 139.386 124.635 147.428 123.911 157.574H159.748Z" fill="#E64223"/>
<path d="M182.216 172.818L184.969 171.251C187.815 176.886 192.622 179.2 198.338 179.2C204.964 179.2 210.68 175.787 210.68 169.778C210.68 156.195 183.686 165.523 183.686 148.807C183.686 141.607 190.405 136.72 198.058 136.72C204.497 136.72 209.957 139.409 212.99 144.856L210.237 146.423C207.553 141.537 203.144 139.877 198.174 139.877C192.458 139.877 187.022 143.383 187.022 148.831C187.022 162.04 214.016 152.899 214.016 169.802C214.016 177.564 206.737 182.356 198.454 182.356C191.548 182.356 185.459 179.224 182.239 172.841L182.216 172.818Z" fill="#E64223"/>
<path d="M236.507 137.165V181.678H233.288V137.165H236.507Z" fill="#E64223"/>
<path d="M257.972 192.199L260.725 190.539C264.318 196.828 271.037 199.867 278.317 199.867C290.286 199.867 298.685 191.006 298.591 177.891L298.498 169.661C295.185 177.143 287.719 182.497 278.503 182.497C265.788 182.497 255.732 172.069 255.732 159.328C255.732 146.586 265.601 136.253 278.76 136.253C291.919 136.253 301.788 146.399 301.788 159.328V178.265C301.788 193.227 292.105 203.023 278.387 203.023C269.918 203.023 261.985 199.329 257.925 192.222L257.972 192.199ZM298.521 159.328C298.521 148.34 289.772 139.386 278.807 139.386C267.841 139.386 259.092 148.34 259.092 159.328C259.092 170.316 267.841 179.364 278.807 179.364C289.772 179.364 298.521 170.316 298.521 159.328Z" fill="#E64223"/>
<path d="M324.326 157.271V180.182H321.106V157.177C321.106 144.436 328.945 134.733 341.661 134.733C354.376 134.733 362.682 144.342 362.682 157.084V180.159H359.462V157.341C359.462 146.914 353.023 137.866 341.684 137.866C330.345 137.866 324.349 146.914 324.349 157.247L324.326 157.271Z" fill="#E64223"/>
</g>
<defs>
<clipPath id="clip0_1495_10">
<rect width="418" height="203" fill="white"/>
</clipPath>
</defs>
</svg>
