<svg width="41" height="41" viewBox="0 0 41 41" fill="none" xmlns="http://www.w3.org/2000/svg">
<circle cx="20.5" cy="20.5" r="20.5" fill="#E64223"/>
<g clip-path="url(#clip0_1932_147)">
<path d="M19.2327 10.6104V17.854C19.2327 17.854 19.4871 19.2854 16.8322 21.524C16.6688 21.662 16.4852 21.784 16.2932 21.9172C12.8163 24.3387 11.1924 24.3772 11.1924 25.2887V33.1052H14.9051V25.8616C14.9051 25.8616 14.607 24.2552 17.3056 22.1916C17.4757 22.0616 17.6543 21.9316 17.8447 21.7984C21.3216 19.3785 22.9455 19.34 22.9455 18.4285V10.6104H19.2327Z" fill="white"/>
</g>
<g clip-path="url(#clip1_1932_147)">
<path fill-rule="evenodd" clip-rule="evenodd" d="M22.2335 8.0238L30.2277 16.0179L28.2295 18.0161L21.2344 11.0211L14.2394 18.0161L12.2412 16.0179L20.2353 8.0238C20.5003 7.75887 20.8597 7.61005 21.2344 7.61005C21.6092 7.61005 21.9685 7.75887 22.2335 8.0238Z" fill="white"/>
</g>
<defs>
<clipPath id="clip0_1932_147">
<rect width="11.7666" height="22.4949" fill="white" transform="translate(11.1924 10.6104)"/>
</clipPath>
<clipPath id="clip1_1932_147">
<rect width="16.9577" height="33.9154" fill="white" transform="translate(4.271 22.377) rotate(-90)"/>
</clipPath>
</defs>
</svg>
